<?xml version="1.0" encoding="UTF-8" standalone="no"?>
<!DOCTYPE svg PUBLIC "-//W3C//DTD SVG 1.1//EN" "http://www.w3.org/Graphics/SVG/1.1/DTD/svg11.dtd">
<svg version="1.1" xmlns="http://www.w3.org/2000/svg" xmlns:xlink="http://www.w3.org/1999/xlink" preserveAspectRatio="xMidYMid meet" viewBox="0 0 640 640" width="640" height="640"><defs><path d="M500.22 198.82C491.7 204.59 479.34 203.22 466.15 221.9C459.98 230.64 457.11 236.98 457.54 240.91C458 245.16 462.39 247.8 466.36 246.21C467.04 245.94 467.7 245.65 468.35 245.35C480.73 239.62 487.62 231.8 487.03 221.9C485.93 203.22 436.48 194.43 416.7 185.63C403.52 179.77 402.78 171.72 414.51 161.46C447.47 138.02 477.51 128.13 504.62 131.79C530.5 135.29 520.64 146.8 475.04 166.34C472.89 167.26 470.66 168.2 468.35 169.15" id="ceQO0PvUW"></path></defs><g><g><g><g><filter id="shadow959692" x="394.23" y="119.05" width="140.44" height="141.63" filterUnits="userSpaceOnUse" primitiveUnits="userSpaceOnUse"><feFlood></feFlood><feComposite in2="SourceAlpha" operator="in"></feComposite><feGaussianBlur stdDeviation="1"></feGaussianBlur><feOffset dx="4" dy="2" result="afterOffset"></feOffset><feFlood flood-color="#3f51b5" flood-opacity="0.56"></feFlood><feComposite in2="afterOffset" operator="in"></feComposite><feMorphology operator="dilate" radius="1"></feMorphology><feComposite in2="SourceAlpha" operator="out"></feComposite></filter><path d="M500.22 198.82C491.7 204.59 479.34 203.22 466.15 221.9C459.98 230.64 457.11 236.98 457.54 240.91C458 245.16 462.39 247.8 466.36 246.21C467.04 245.94 467.7 245.65 468.35 245.35C480.73 239.62 487.62 231.8 487.03 221.9C485.93 203.22 436.48 194.43 416.7 185.63C403.52 179.77 402.78 171.72 414.51 161.46C447.47 138.02 477.51 128.13 504.62 131.79C530.5 135.29 520.64 146.8 475.04 166.34C472.89 167.26 470.66 168.2 468.35 169.15" id="e29QMAlfX" fill="none" stroke="white" filter="url(#shadow959692)"></path></g><g><use xlink:href="#ceQO0PvUW" opacity="1" fill-opacity="0" stroke="#3b51cb" stroke-width="5" stroke-opacity="1"></use></g></g></g></g></svg>